<svg xmlns="http://www.w3.org/2000/svg" viewBox="604.924 2229.014 13 16.611"><defs><style>.a{fill:#22f0dd;}</style></defs><g transform="translate(549.272 2229.014)"><g transform="translate(55.652)"><path class="a" d="M63.777,5.417a.542.542,0,0,1-.542-.542V0H56.194a.542.542,0,0,0-.542.542V16.069a.542.542,0,0,0,.542.542H68.11a.542.542,0,0,0,.542-.542V5.417ZM58.36,13.361a.542.542,0,1,1,.542-.542A.542.542,0,0,1,58.36,13.361Zm0-2.167a.542.542,0,1,1,.542-.542A.542.542,0,0,1,58.36,11.194Zm0-2.167a.542.542,0,1,1,.542-.542A.542.542,0,0,1,58.36,9.028Zm7.583,4.333H60.527a.542.542,0,0,1,0-1.083h5.417a.542.542,0,0,1,0,1.083Zm0-2.167H60.527a.542.542,0,0,1,0-1.083h5.417a.542.542,0,0,1,0,1.083Zm0-2.167H60.527a.542.542,0,0,1,0-1.083h5.417a.542.542,0,0,1,0,1.083Z" transform="translate(-55.652)"/></g><g transform="translate(64.319 0.317)"><path class="a" d="M322.783,9.783V13.8H326.8Z" transform="translate(-322.783 -9.783)"/></g></g></svg>