<svg xmlns="http://www.w3.org/2000/svg" viewBox="1131.945 1124.956 972.875 702.044"><defs><style>.a{fill:#666;fill-rule:evenodd;}</style></defs><g transform="translate(1127.945 1122.956)"><g transform="translate(4 2)"><path class="a" d="M358.256,7.977h-24.8V697.951H429.94V447.4C392.064,399.237,362.994,224.249,358.256,7.977Z" transform="translate(171.072 4.092)"/><path class="a" d="M343.587,10.863V702.044H247.1V436.6c35.244-58.816,61.685-229.226,65.78-436.6H325.5Z" transform="translate(126.77 0)"/><path class="a" d="M762.273,479.906v52.3H410.51V331.049h33.977c28.943,85.484,134.6,148.857,260.5,148.857h57.287Z" transform="translate(210.602 169.836)"/><path class="a" d="M351.763,40.18V0H0V183H42.192C73.965,100.588,177.584,40.18,300.506,40.18h51.257Z" transform="translate(351.763 702.018) rotate(180)"/></g></g></svg>